<svg width="265" height="94" viewBox="0 0 265 94" fill="none" xmlns="http://www.w3.org/2000/svg">
<path d="M70.1641 50.3164H63.8008V45.5527H70.1641C71.0312 45.5527 71.7344 45.4062 72.2734 45.1133C72.8125 44.8203 73.2051 44.416 73.4512 43.9004C73.709 43.373 73.8379 42.7812 73.8379 42.125C73.8379 41.4219 73.709 40.7715 73.4512 40.1738C73.2051 39.5762 72.8125 39.0957 72.2734 38.7324C71.7344 38.3574 71.0312 38.1699 70.1641 38.1699H66.1211V59H59.9512V33.4062H70.1641C72.2148 33.4062 73.9785 33.7812 75.4551 34.5312C76.9434 35.2812 78.0859 36.3125 78.8828 37.625C79.6797 38.9258 80.0781 40.4141 80.0781 42.0898C80.0781 43.7422 79.6797 45.1836 78.8828 46.4141C78.0859 47.6445 76.9434 48.6055 75.4551 49.2969C73.9785 49.9766 72.2148 50.3164 70.1641 50.3164ZM101.014 54.2539V59H87.373V54.2539H101.014ZM89.5703 33.4062V59H83.4004V33.4062H89.5703ZM99.2559 43.5664V48.1543H87.373V43.5664H99.2559ZM101.066 33.4062V38.1699H87.373V33.4062H101.066ZM116.289 33.4062V59H110.119V33.4062H116.289ZM123.988 33.4062V38.1699H102.596V33.4062H123.988ZM126.607 33.4062H136.68C138.648 33.4062 140.359 33.6992 141.812 34.2852C143.266 34.8711 144.385 35.7383 145.17 36.8867C145.967 38.0352 146.365 39.4531 146.365 41.1406C146.365 42.6055 146.137 43.8301 145.68 44.8145C145.223 45.7988 144.584 46.6133 143.764 47.2578C142.955 47.8906 142.012 48.4121 140.934 48.8223L138.912 49.9648H130.457L130.422 45.2012H136.68C137.465 45.2012 138.115 45.0605 138.631 44.7793C139.146 44.498 139.533 44.0996 139.791 43.584C140.061 43.0566 140.195 42.4297 140.195 41.7031C140.195 40.9648 140.061 40.332 139.791 39.8047C139.521 39.2773 139.123 38.873 138.596 38.5918C138.08 38.3105 137.441 38.1699 136.68 38.1699H132.777V59H126.607V33.4062ZM140.617 59L134.957 47.6797L141.496 47.6445L147.227 58.7363V59H140.617ZM171.748 45.6934V46.7305C171.748 48.6875 171.473 50.4453 170.922 52.0039C170.383 53.5508 169.615 54.875 168.619 55.9766C167.623 57.0664 166.445 57.9043 165.086 58.4902C163.727 59.0645 162.227 59.3516 160.586 59.3516C158.934 59.3516 157.422 59.0645 156.051 58.4902C154.691 57.9043 153.508 57.0664 152.5 55.9766C151.504 54.875 150.73 53.5508 150.18 52.0039C149.641 50.4453 149.371 48.6875 149.371 46.7305V45.6934C149.371 43.7363 149.641 41.9785 150.18 40.4199C150.73 38.8613 151.498 37.5371 152.482 36.4473C153.479 35.3457 154.656 34.5078 156.016 33.9336C157.387 33.3477 158.898 33.0547 160.551 33.0547C162.191 33.0547 163.691 33.3477 165.051 33.9336C166.422 34.5078 167.605 35.3457 168.602 36.4473C169.598 37.5371 170.371 38.8613 170.922 40.4199C171.473 41.9785 171.748 43.7363 171.748 45.6934ZM165.49 46.7305V45.6582C165.49 44.3926 165.379 43.2793 165.156 42.3184C164.945 41.3457 164.629 40.5312 164.207 39.875C163.785 39.2188 163.264 38.7266 162.643 38.3984C162.033 38.0586 161.336 37.8887 160.551 37.8887C159.73 37.8887 159.016 38.0586 158.406 38.3984C157.797 38.7266 157.287 39.2188 156.877 39.875C156.467 40.5312 156.156 41.3457 155.945 42.3184C155.746 43.2793 155.646 44.3926 155.646 45.6582V46.7305C155.646 47.9844 155.746 49.0977 155.945 50.0703C156.156 51.0312 156.467 51.8457 156.877 52.5137C157.299 53.1816 157.814 53.6855 158.424 54.0254C159.045 54.3652 159.766 54.5352 160.586 54.5352C161.371 54.5352 162.068 54.3652 162.678 54.0254C163.287 53.6855 163.797 53.1816 164.207 52.5137C164.629 51.8457 164.945 51.0312 165.156 50.0703C165.379 49.0977 165.49 47.9844 165.49 46.7305ZM178.006 33.4062H183.033L188.746 51.2129L194.459 33.4062H199.486L190.785 59H186.707L178.006 33.4062ZM174.947 33.4062H180.15L181.117 53.0234V59H174.947V33.4062ZM197.342 33.4062H202.562V59H196.375V53.0234L197.342 33.4062ZM217.68 38.7852L211.439 59H204.812L214.217 33.4062H218.418L217.68 38.7852ZM222.848 59L216.59 38.7852L215.781 33.4062H220.035L229.492 59H222.848ZM222.602 49.4551V54.2188H209.471V49.4551H222.602ZM236.734 33.4062L240.918 41.9141L245.102 33.4062H252.133L244.996 46.0977L252.326 59H245.225L240.918 50.334L236.611 59H229.492L236.84 46.0977L229.686 33.4062H236.734Z" fill="#858585"/>
<path d="M12 46.5L50.25 24.4164L50.25 68.5836L12 46.5Z" fill="#20BDEF"/>
<path d="M14 56.5L38.75 42.2106L38.75 70.7894L14 56.5Z" fill="#FF0000"/>
</svg>
