<svg width="265" height="94" viewBox="0 0 265 94" fill="none" xmlns="http://www.w3.org/2000/svg">
<path d="M114.336 47.076C115.248 47.22 116.076 47.592 116.82 48.192C117.588 48.792 118.188 49.536 118.62 50.424C119.076 51.312 119.304 52.26 119.304 53.268C119.304 54.54 118.98 55.692 118.332 56.724C117.684 57.732 116.736 58.536 115.488 59.136C114.264 59.712 112.812 60 111.132 60H101.772V34.908H110.772C112.476 34.908 113.928 35.196 115.128 35.772C116.328 36.324 117.228 37.08 117.828 38.04C118.428 39 118.728 40.08 118.728 41.28C118.728 42.768 118.32 44.004 117.504 44.988C116.712 45.948 115.656 46.644 114.336 47.076ZM105.048 45.744H110.556C112.092 45.744 113.28 45.384 114.12 44.664C114.96 43.944 115.38 42.948 115.38 41.676C115.38 40.404 114.96 39.408 114.12 38.688C113.28 37.968 112.068 37.608 110.484 37.608H105.048V45.744ZM110.844 57.3C112.476 57.3 113.748 56.916 114.66 56.148C115.572 55.38 116.028 54.312 116.028 52.944C116.028 51.552 115.548 50.46 114.588 49.668C113.628 48.852 112.344 48.444 110.736 48.444H105.048V57.3H110.844ZM125.542 37.068C124.918 37.068 124.39 36.852 123.958 36.42C123.526 35.988 123.31 35.46 123.31 34.836C123.31 34.212 123.526 33.684 123.958 33.252C124.39 32.82 124.918 32.604 125.542 32.604C126.142 32.604 126.646 32.82 127.054 33.252C127.486 33.684 127.702 34.212 127.702 34.836C127.702 35.46 127.486 35.988 127.054 36.42C126.646 36.852 126.142 37.068 125.542 37.068ZM127.126 40.272V60H123.85V40.272H127.126ZM141.314 60.324C139.466 60.324 137.786 59.904 136.274 59.064C134.786 58.224 133.61 57.036 132.746 55.5C131.906 53.94 131.486 52.14 131.486 50.1C131.486 48.084 131.918 46.308 132.782 44.772C133.67 43.212 134.87 42.024 136.382 41.208C137.894 40.368 139.586 39.948 141.458 39.948C143.33 39.948 145.022 40.368 146.534 41.208C148.046 42.024 149.234 43.2 150.098 44.736C150.986 46.272 151.43 48.06 151.43 50.1C151.43 52.14 150.974 53.94 150.062 55.5C149.174 57.036 147.962 58.224 146.426 59.064C144.89 59.904 143.186 60.324 141.314 60.324ZM141.314 57.444C142.49 57.444 143.594 57.168 144.626 56.616C145.658 56.064 146.486 55.236 147.11 54.132C147.758 53.028 148.082 51.684 148.082 50.1C148.082 48.516 147.77 47.172 147.146 46.068C146.522 44.964 145.706 44.148 144.698 43.62C143.69 43.068 142.598 42.792 141.422 42.792C140.222 42.792 139.118 43.068 138.11 43.62C137.126 44.148 136.334 44.964 135.734 46.068C135.134 47.172 134.834 48.516 134.834 50.1C134.834 51.708 135.122 53.064 135.698 54.168C136.298 55.272 137.09 56.1 138.074 56.652C139.058 57.18 140.138 57.444 141.314 57.444ZM163.693 60.252C162.037 60.252 160.549 59.964 159.229 59.388C157.933 58.788 156.913 57.972 156.169 56.94C155.425 55.884 155.041 54.672 155.017 53.304H158.509C158.629 54.48 159.109 55.476 159.949 56.292C160.813 57.084 162.061 57.48 163.693 57.48C165.253 57.48 166.477 57.096 167.365 56.328C168.277 55.536 168.733 54.528 168.733 53.304C168.733 52.344 168.469 51.564 167.941 50.964C167.413 50.364 166.753 49.908 165.961 49.596C165.169 49.284 164.101 48.948 162.757 48.588C161.101 48.156 159.769 47.724 158.761 47.292C157.777 46.86 156.925 46.188 156.205 45.276C155.509 44.34 155.161 43.092 155.161 41.532C155.161 40.164 155.509 38.952 156.205 37.896C156.901 36.84 157.873 36.024 159.121 35.448C160.393 34.872 161.845 34.584 163.477 34.584C165.829 34.584 167.749 35.172 169.237 36.348C170.749 37.524 171.601 39.084 171.793 41.028H168.193C168.073 40.068 167.569 39.228 166.681 38.508C165.793 37.764 164.617 37.392 163.153 37.392C161.785 37.392 160.669 37.752 159.805 38.472C158.941 39.168 158.509 40.152 158.509 41.424C158.509 42.336 158.761 43.08 159.265 43.656C159.793 44.232 160.429 44.676 161.173 44.988C161.941 45.276 163.009 45.612 164.377 45.996C166.033 46.452 167.365 46.908 168.373 47.364C169.381 47.796 170.245 48.48 170.965 49.416C171.685 50.328 172.045 51.576 172.045 53.16C172.045 54.384 171.721 55.536 171.073 56.616C170.425 57.696 169.465 58.572 168.193 59.244C166.921 59.916 165.421 60.252 163.693 60.252ZM185.47 60.324C183.622 60.324 181.942 59.904 180.43 59.064C178.942 58.224 177.766 57.036 176.902 55.5C176.062 53.94 175.642 52.14 175.642 50.1C175.642 48.084 176.074 46.308 176.938 44.772C177.826 43.212 179.026 42.024 180.538 41.208C182.05 40.368 183.742 39.948 185.614 39.948C187.486 39.948 189.178 40.368 190.69 41.208C192.202 42.024 193.39 43.2 194.254 44.736C195.142 46.272 195.586 48.06 195.586 50.1C195.586 52.14 195.13 53.94 194.218 55.5C193.33 57.036 192.118 58.224 190.582 59.064C189.046 59.904 187.342 60.324 185.47 60.324ZM185.47 57.444C186.646 57.444 187.75 57.168 188.782 56.616C189.814 56.064 190.642 55.236 191.266 54.132C191.914 53.028 192.238 51.684 192.238 50.1C192.238 48.516 191.926 47.172 191.302 46.068C190.678 44.964 189.862 44.148 188.854 43.62C187.846 43.068 186.754 42.792 185.578 42.792C184.378 42.792 183.274 43.068 182.266 43.62C181.282 44.148 180.49 44.964 179.89 46.068C179.29 47.172 178.99 48.516 178.99 50.1C178.99 51.708 179.278 53.064 179.854 54.168C180.454 55.272 181.246 56.1 182.23 56.652C183.214 57.18 184.294 57.444 185.47 57.444ZM208.497 60.324C206.649 60.324 204.969 59.904 203.457 59.064C201.969 58.224 200.793 57.036 199.929 55.5C199.089 53.94 198.669 52.14 198.669 50.1C198.669 48.084 199.101 46.308 199.965 44.772C200.853 43.212 202.053 42.024 203.565 41.208C205.077 40.368 206.769 39.948 208.641 39.948C210.513 39.948 212.205 40.368 213.717 41.208C215.229 42.024 216.417 43.2 217.281 44.736C218.169 46.272 218.613 48.06 218.613 50.1C218.613 52.14 218.157 53.94 217.245 55.5C216.357 57.036 215.145 58.224 213.609 59.064C212.073 59.904 210.369 60.324 208.497 60.324ZM208.497 57.444C209.673 57.444 210.777 57.168 211.809 56.616C212.841 56.064 213.669 55.236 214.293 54.132C214.941 53.028 215.265 51.684 215.265 50.1C215.265 48.516 214.953 47.172 214.329 46.068C213.705 44.964 212.889 44.148 211.881 43.62C210.873 43.068 209.781 42.792 208.605 42.792C207.405 42.792 206.301 43.068 205.293 43.62C204.309 44.148 203.517 44.964 202.917 46.068C202.317 47.172 202.017 48.516 202.017 50.1C202.017 51.708 202.305 53.064 202.881 54.168C203.481 55.272 204.273 56.1 205.257 56.652C206.241 57.18 207.321 57.444 208.497 57.444ZM226.196 33.36V60H222.92V33.36H226.196Z" fill="#858585"/>
<circle cx="63" cy="47" r="29" fill="#0085FF" fill-opacity="0.5"/>
<circle cx="65" cy="50" r="25" fill="#0085FF" fill-opacity="0.5"/>
<circle cx="66.5" cy="53.5" r="18.5" fill="#0085FF" fill-opacity="0.5"/>
</svg>
