<svg width="265" height="94" viewBox="0 0 265 94" fill="none" xmlns="http://www.w3.org/2000/svg">
<path d="M102.532 49.04C103.996 49.352 105.172 50.084 106.06 51.236C106.948 52.364 107.392 53.66 107.392 55.124C107.392 57.236 106.648 58.916 105.16 60.164C103.696 61.388 101.644 62 99.004 62H87.232V36.728H98.608C101.176 36.728 103.18 37.316 104.62 38.492C106.084 39.668 106.816 41.264 106.816 43.28C106.816 44.768 106.42 46.004 105.628 46.988C104.86 47.972 103.828 48.656 102.532 49.04ZM93.388 46.952H97.42C98.428 46.952 99.196 46.736 99.724 46.304C100.276 45.848 100.552 45.188 100.552 44.324C100.552 43.46 100.276 42.8 99.724 42.344C99.196 41.888 98.428 41.66 97.42 41.66H93.388V46.952ZM97.924 57.032C98.956 57.032 99.748 56.804 100.3 56.348C100.876 55.868 101.164 55.184 101.164 54.296C101.164 53.408 100.864 52.712 100.264 52.208C99.688 51.704 98.884 51.452 97.852 51.452H93.388V57.032H97.924ZM126.694 57.536H117.262L115.75 62H109.306L118.45 36.728H125.578L134.722 62H128.206L126.694 57.536ZM125.11 52.784L121.978 43.532L118.882 52.784H125.11ZM150.393 62L145.137 52.46H143.661V62H137.505V36.728H147.837C149.829 36.728 151.521 37.076 152.913 37.772C154.329 38.468 155.385 39.428 156.081 40.652C156.777 41.852 157.125 43.196 157.125 44.684C157.125 46.364 156.645 47.864 155.685 49.184C154.749 50.504 153.357 51.44 151.509 51.992L157.341 62H150.393ZM143.661 48.104H147.477C148.605 48.104 149.445 47.828 149.997 47.276C150.573 46.724 150.861 45.944 150.861 44.936C150.861 43.976 150.573 43.22 149.997 42.668C149.445 42.116 148.605 41.84 147.477 41.84H143.661V48.104ZM159.946 49.328C159.946 46.832 160.486 44.612 161.566 42.668C162.646 40.7 164.146 39.176 166.066 38.096C168.01 36.992 170.206 36.44 172.654 36.44C175.654 36.44 178.222 37.232 180.358 38.816C182.494 40.4 183.922 42.56 184.642 45.296H177.874C177.37 44.24 176.65 43.436 175.714 42.884C174.802 42.332 173.758 42.056 172.582 42.056C170.686 42.056 169.15 42.716 167.974 44.036C166.798 45.356 166.21 47.12 166.21 49.328C166.21 51.536 166.798 53.3 167.974 54.62C169.15 55.94 170.686 56.6 172.582 56.6C173.758 56.6 174.802 56.324 175.714 55.772C176.65 55.22 177.37 54.416 177.874 53.36H184.642C183.922 56.096 182.494 58.256 180.358 59.84C178.222 61.4 175.654 62.18 172.654 62.18C170.206 62.18 168.01 61.64 166.066 60.56C164.146 59.456 162.646 57.932 161.566 55.988C160.486 54.044 159.946 51.824 159.946 49.328ZM200.364 62.252C197.988 62.252 195.804 61.7 193.812 60.596C191.844 59.492 190.272 57.956 189.096 55.988C187.944 53.996 187.368 51.764 187.368 49.292C187.368 46.82 187.944 44.6 189.096 42.632C190.272 40.664 191.844 39.128 193.812 38.024C195.804 36.92 197.988 36.368 200.364 36.368C202.74 36.368 204.912 36.92 206.88 38.024C208.872 39.128 210.432 40.664 211.56 42.632C212.712 44.6 213.288 46.82 213.288 49.292C213.288 51.764 212.712 53.996 211.56 55.988C210.408 57.956 208.848 59.492 206.88 60.596C204.912 61.7 202.74 62.252 200.364 62.252ZM200.364 56.636C202.38 56.636 203.988 55.964 205.188 54.62C206.412 53.276 207.024 51.5 207.024 49.292C207.024 47.06 206.412 45.284 205.188 43.964C203.988 42.62 202.38 41.948 200.364 41.948C198.324 41.948 196.692 42.608 195.468 43.928C194.268 45.248 193.668 47.036 193.668 49.292C193.668 51.524 194.268 53.312 195.468 54.656C196.692 55.976 198.324 56.636 200.364 56.636ZM228.664 62.252C226.288 62.252 224.104 61.7 222.112 60.596C220.144 59.492 218.572 57.956 217.396 55.988C216.244 53.996 215.668 51.764 215.668 49.292C215.668 46.82 216.244 44.6 217.396 42.632C218.572 40.664 220.144 39.128 222.112 38.024C224.104 36.92 226.288 36.368 228.664 36.368C231.04 36.368 233.212 36.92 235.18 38.024C237.172 39.128 238.732 40.664 239.86 42.632C241.012 44.6 241.588 46.82 241.588 49.292C241.588 51.764 241.012 53.996 239.86 55.988C238.708 57.956 237.148 59.492 235.18 60.596C233.212 61.7 231.04 62.252 228.664 62.252ZM228.664 56.636C230.68 56.636 232.288 55.964 233.488 54.62C234.712 53.276 235.324 51.5 235.324 49.292C235.324 47.06 234.712 45.284 233.488 43.964C232.288 42.62 230.68 41.948 228.664 41.948C226.624 41.948 224.992 42.608 223.768 43.928C222.568 45.248 221.968 47.036 221.968 49.292C221.968 51.524 222.568 53.312 223.768 54.656C224.992 55.976 226.624 56.636 228.664 56.636Z" fill="#858585"/>
<rect x="30.9727" y="25.4385" width="16.8767" height="17.6438" fill="#C4C4C4"/>
<rect x="21" y="46.1506" width="26.8493" height="26.8493" fill="#C4C4C4"/>
<rect x="50.918" y="46.1506" width="16.1096" height="16.1096" fill="#C4C4C4"/>
<rect x="50.918" y="17" width="26.0822" height="26.0822" fill="#C4C4C4"/>
</svg>
