<svg width="265" height="94" viewBox="0 0 265 94" fill="none" xmlns="http://www.w3.org/2000/svg">
<path d="M105.287 60H101.051V37.8867H93.5273V34.3008H112.793V37.8867H105.287V60ZM120.439 32.6484V39.5215C120.439 40.2363 120.416 40.9336 120.369 41.6133C120.334 42.293 120.293 42.8203 120.246 43.1953H120.475C120.885 42.5156 121.389 41.959 121.986 41.5254C122.584 41.0801 123.252 40.7461 123.99 40.5234C124.74 40.3008 125.537 40.1895 126.381 40.1895C127.869 40.1895 129.135 40.4414 130.178 40.9453C131.221 41.4375 132.018 42.2051 132.568 43.248C133.131 44.291 133.412 45.6445 133.412 47.3086V60H129.281V48.082C129.281 46.5703 128.971 45.4395 128.35 44.6895C127.729 43.9277 126.768 43.5469 125.467 43.5469C124.213 43.5469 123.217 43.8105 122.479 44.3379C121.752 44.8535 121.23 45.6211 120.914 46.6406C120.598 47.6484 120.439 48.8789 120.439 50.332V60H116.309V32.6484H120.439ZM146.947 40.1719C148.682 40.1719 150.17 40.5293 151.412 41.2441C152.654 41.959 153.609 42.9727 154.277 44.2852C154.945 45.5977 155.279 47.168 155.279 48.9961V51.2109H142.289C142.336 53.0977 142.84 54.5508 143.801 55.5703C144.773 56.5898 146.133 57.0996 147.879 57.0996C149.121 57.0996 150.234 56.9824 151.219 56.748C152.215 56.502 153.24 56.1445 154.295 55.6758V59.0332C153.322 59.4902 152.332 59.8242 151.324 60.0352C150.316 60.2461 149.109 60.3516 147.703 60.3516C145.793 60.3516 144.111 59.9824 142.658 59.2441C141.217 58.4941 140.086 57.3809 139.266 55.9043C138.457 54.4277 138.053 52.5938 138.053 50.4023C138.053 48.2227 138.422 46.3711 139.16 44.8477C139.898 43.3242 140.936 42.1641 142.271 41.3672C143.607 40.5703 145.166 40.1719 146.947 40.1719ZM146.947 43.2832C145.646 43.2832 144.592 43.7051 143.783 44.5488C142.986 45.3926 142.518 46.6289 142.377 48.2578H151.236C151.225 47.2852 151.061 46.4238 150.744 45.6738C150.439 44.9238 149.971 44.3379 149.338 43.916C148.717 43.4941 147.92 43.2832 146.947 43.2832ZM164.385 60L156.984 40.541H161.361L165.369 51.9668C165.627 52.6934 165.861 53.4785 166.072 54.3223C166.283 55.166 166.43 55.875 166.512 56.4492H166.652C166.734 55.8516 166.893 55.1367 167.127 54.3047C167.361 53.4609 167.602 52.6816 167.848 51.9668L171.855 40.541H176.215L168.814 60H164.385ZM189.029 40.1719C189.357 40.1719 189.715 40.1895 190.102 40.2246C190.488 40.2598 190.822 40.3066 191.104 40.3652L190.717 44.2324C190.471 44.1621 190.166 44.1094 189.803 44.0742C189.451 44.0391 189.135 44.0215 188.854 44.0215C188.115 44.0215 187.412 44.1445 186.744 44.3906C186.076 44.625 185.484 44.9883 184.969 45.4805C184.453 45.9609 184.049 46.5645 183.756 47.291C183.463 48.0176 183.316 48.8613 183.316 49.8223V60H179.168V40.541H182.402L182.965 43.9688H183.158C183.545 43.2773 184.025 42.6445 184.6 42.0703C185.174 41.4961 185.83 41.0391 186.568 40.6992C187.318 40.3477 188.139 40.1719 189.029 40.1719ZM211.934 50.2266C211.934 51.8438 211.723 53.2793 211.301 54.5332C210.879 55.7871 210.264 56.8477 209.455 57.7148C208.646 58.5703 207.674 59.2266 206.537 59.6836C205.4 60.1289 204.117 60.3516 202.688 60.3516C201.352 60.3516 200.127 60.1289 199.014 59.6836C197.9 59.2266 196.934 58.5703 196.113 57.7148C195.305 56.8477 194.678 55.7871 194.232 54.5332C193.787 53.2793 193.564 51.8438 193.564 50.2266C193.564 48.082 193.934 46.2656 194.672 44.7773C195.422 43.2773 196.488 42.1348 197.871 41.3496C199.254 40.5645 200.9 40.1719 202.811 40.1719C204.604 40.1719 206.186 40.5645 207.557 41.3496C208.928 42.1348 210 43.2773 210.773 44.7773C211.547 46.2773 211.934 48.0938 211.934 50.2266ZM197.818 50.2266C197.818 51.6445 197.988 52.8574 198.328 53.8652C198.68 54.873 199.219 55.6465 199.945 56.1855C200.672 56.7129 201.609 56.9766 202.758 56.9766C203.906 56.9766 204.844 56.7129 205.57 56.1855C206.297 55.6465 206.83 54.873 207.17 53.8652C207.51 52.8574 207.68 51.6445 207.68 50.2266C207.68 48.8086 207.51 47.6074 207.17 46.623C206.83 45.627 206.297 44.8711 205.57 44.3555C204.844 43.8281 203.9 43.5645 202.74 43.5645C201.029 43.5645 199.781 44.1387 198.996 45.2871C198.211 46.4355 197.818 48.082 197.818 50.2266ZM226.822 40.1719C229.014 40.1719 230.719 40.7402 231.938 41.877C233.168 43.002 233.783 44.8125 233.783 47.3086V60H229.652V48.082C229.652 46.5703 229.342 45.4395 228.721 44.6895C228.1 43.9277 227.139 43.5469 225.838 43.5469C223.951 43.5469 222.639 44.127 221.9 45.2871C221.174 46.4473 220.811 48.1289 220.811 50.332V60H216.68V40.541H219.896L220.477 43.1777H220.705C221.127 42.498 221.648 41.9414 222.27 41.5078C222.902 41.0625 223.605 40.7285 224.379 40.5059C225.164 40.2832 225.979 40.1719 226.822 40.1719Z" fill="#858585"/>
<path d="M70.5 24.5H71.5V23.5H70.5V24.5ZM70.5 70V71H71.5V70H70.5ZM59.5312 70H58.5312V71H59.5312V70ZM59.5312 24.5V23.5H58.5312V24.5H59.5312ZM84.1875 24.5H85.1875V23.5H84.1875V24.5ZM84.1875 32.9688V33.9688H85.1875V32.9688H84.1875ZM46.1562 32.9688H45.1562V33.9688H46.1562V32.9688ZM46.1562 24.5V23.5H45.1562V24.5H46.1562ZM69.5 24.5V70H71.5V24.5H69.5ZM70.5 69H59.5312V71H70.5V69ZM60.5312 70V24.5H58.5312V70H60.5312ZM59.5312 25.5H70.5V23.5H59.5312V25.5ZM83.1875 24.5V32.9688H85.1875V24.5H83.1875ZM84.1875 31.9688H46.1562V33.9688H84.1875V31.9688ZM47.1562 32.9688V24.5H45.1562V32.9688H47.1562ZM46.1562 25.5H84.1875V23.5H46.1562V25.5Z" fill="#00FFB2"/>
<path d="M64.5 20.5H65.5V19.5H64.5V20.5ZM64.5 66V67H65.5V66H64.5ZM53.5312 66H52.5312V67H53.5312V66ZM53.5312 20.5V19.5H52.5312V20.5H53.5312ZM78.1875 20.5H79.1875V19.5H78.1875V20.5ZM78.1875 28.9688V29.9688H79.1875V28.9688H78.1875ZM40.1562 28.9688H39.1562V29.9688H40.1562V28.9688ZM40.1562 20.5V19.5H39.1562V20.5H40.1562ZM63.5 20.5V66H65.5V20.5H63.5ZM64.5 65H53.5312V67H64.5V65ZM54.5312 66V20.5H52.5312V66H54.5312ZM53.5312 21.5H64.5V19.5H53.5312V21.5ZM77.1875 20.5V28.9688H79.1875V20.5H77.1875ZM78.1875 27.9688H40.1562V29.9688H78.1875V27.9688ZM41.1562 28.9688V20.5H39.1562V28.9688H41.1562ZM40.1562 21.5H78.1875V19.5H40.1562V21.5Z" fill="#FFA800"/>
</svg>
